<svg width="33" height="33" viewBox="0 0 33 33" fill="none" xmlns="http://www.w3.org/2000/svg">
<g id="Google Logo">
<g id="Clip path group">
<mask id="mask0_6409_35208" style="mask-type:luminance" maskUnits="userSpaceOnUse" x="0" y="0" width="33" height="33">
<g id="B">
<path id="Vector" d="M32.6163 13.5H16.8837V19.875H25.9395C25.0953 23.925 21.5651 26.25 16.8837 26.25C11.3581 26.25 6.90697 21.9 6.90697 16.5C6.90697 11.1 11.3581 6.75 16.8837 6.75C19.2628 6.75 21.4116 7.575 23.1 8.925L28.0116 4.125C25.0186 1.575 21.1814 0 16.8837 0C7.52093 0 0 7.35 0 16.5C0 25.65 7.52093 33 16.8837 33C25.3256 33 33 27 33 16.5C33 15.525 32.8465 14.475 32.6163 13.5Z" fill="white"/>
</g>
</mask>
<g mask="url(#mask0_6409_35208)">
<path id="Vector_2" d="M-1.53479 26.25V6.75L11.5117 16.5L-1.53479 26.25Z" fill="#FBBC05"/>
</g>
</g>
<g id="Clip path group_2">
<mask id="mask1_6409_35208" style="mask-type:luminance" maskUnits="userSpaceOnUse" x="0" y="0" width="33" height="33">
<g id="B_2">
<path id="Vector_3" d="M32.6163 13.5H16.8837V19.875H25.9395C25.0953 23.925 21.5651 26.25 16.8837 26.25C11.3581 26.25 6.90697 21.9 6.90697 16.5C6.90697 11.1 11.3581 6.75 16.8837 6.75C19.2628 6.75 21.4116 7.575 23.1 8.925L28.0116 4.125C25.0186 1.575 21.1814 0 16.8837 0C7.52093 0 0 7.35 0 16.5C0 25.65 7.52093 33 16.8837 33C25.3256 33 33 27 33 16.5C33 15.525 32.8465 14.475 32.6163 13.5Z" fill="white"/>
</g>
</mask>
<g mask="url(#mask1_6409_35208)">
<path id="Vector_4" d="M-1.53479 6.75L11.5117 16.5L16.8838 11.925L35.3024 9V-1.5H-1.53479V6.75Z" fill="#EA4335"/>
</g>
</g>
<g id="Clip path group_3">
<mask id="mask2_6409_35208" style="mask-type:luminance" maskUnits="userSpaceOnUse" x="0" y="0" width="33" height="33">
<g id="B_3">
<path id="Vector_5" d="M32.6163 13.5H16.8837V19.875H25.9395C25.0953 23.925 21.5651 26.25 16.8837 26.25C11.3581 26.25 6.90697 21.9 6.90697 16.5C6.90697 11.1 11.3581 6.75 16.8837 6.75C19.2628 6.75 21.4116 7.575 23.1 8.925L28.0116 4.125C25.0186 1.575 21.1814 0 16.8837 0C7.52093 0 0 7.35 0 16.5C0 25.65 7.52093 33 16.8837 33C25.3256 33 33 27 33 16.5C33 15.525 32.8465 14.475 32.6163 13.5Z" fill="white"/>
</g>
</mask>
<g mask="url(#mask2_6409_35208)">
<path id="Vector_6" d="M-1.53479 26.25L21.4885 9L27.5512 9.75L35.3024 -1.5V34.5H-1.53479V26.25Z" fill="#34A853"/>
</g>
</g>
<g id="Clip path group_4">
<mask id="mask3_6409_35208" style="mask-type:luminance" maskUnits="userSpaceOnUse" x="0" y="0" width="33" height="33">
<g id="B_4">
<path id="Vector_7" d="M32.6163 13.5H16.8837V19.875H25.9395C25.0953 23.925 21.5651 26.25 16.8837 26.25C11.3581 26.25 6.90697 21.9 6.90697 16.5C6.90697 11.1 11.3581 6.75 16.8837 6.75C19.2628 6.75 21.4116 7.575 23.1 8.925L28.0116 4.125C25.0186 1.575 21.1814 0 16.8837 0C7.52093 0 0 7.35 0 16.5C0 25.65 7.52093 33 16.8837 33C25.3256 33 33 27 33 16.5C33 15.525 32.8465 14.475 32.6163 13.5Z" fill="white"/>
</g>
</mask>
<g mask="url(#mask3_6409_35208)">
<path id="Vector_8" d="M35.3024 34.5L11.5117 16.5L8.44189 14.25L35.3024 6.75V34.5Z" fill="#4285F4"/>
</g>
</g>
<g id="Clip path group_5">
<mask id="mask4_6409_35208" style="mask-type:luminance" maskUnits="userSpaceOnUse" x="0" y="0" width="33" height="33">
<g id="B_5">
<path id="Vector_9" d="M32.6163 13.5H16.8837V19.875H25.9395C25.0953 23.925 21.5651 26.25 16.8837 26.25C11.3581 26.25 6.90697 21.9 6.90697 16.5C6.90697 11.1 11.3581 6.75 16.8837 6.75C19.2628 6.75 21.4116 7.575 23.1 8.925L28.0116 4.125C25.0186 1.575 21.1814 0 16.8837 0C7.52093 0 0 7.35 0 16.5C0 25.65 7.52093 33 16.8837 33C25.3256 33 33 27 33 16.5C33 15.525 32.8465 14.475 32.6163 13.5Z" fill="white"/>
</g>
</mask>
<g mask="url(#mask4_6409_35208)">
<path id="Vector_10" d="M35.3024 34.5L11.5117 16.5L8.44189 14.25L35.3024 6.75V34.5Z" fill="#4285F4"/>
</g>
</g>
</g>
</svg>
