<svg width="470" height="191" viewBox="0 0 470 191" fill="none" xmlns="http://www.w3.org/2000/svg">
<g clip-path="url(#clip0_1579_17264)">
<path d="M185.004 109.529C163.208 109.529 149.875 97.4717 149.875 73.4728V27.0979H167.73V73.009C167.73 86.3418 174.222 93.0661 185.236 93.0661C196.25 93.0661 202.743 86.5737 202.743 73.5887V27.0979H220.597V72.8931C220.597 97.4717 206.8 109.529 185.004 109.529ZM238.783 108.254V27.0979H299.998V42.9813H256.521V59.4443H294.78V75.3277H256.521V92.3705H300.577V108.254H238.783ZM345.32 109.413C332.915 109.413 320.625 105.24 310.887 96.4283L321.437 83.7912C328.857 89.8199 336.393 93.6458 345.668 93.6458C353.088 93.6458 357.377 90.7474 357.377 85.994V85.7621C357.377 81.2405 354.595 78.8059 341.03 75.4437C324.567 71.3859 314.133 66.6325 314.133 50.6331V50.4013C314.133 35.6772 325.843 25.9385 342.538 25.9385C354.479 25.9385 364.334 29.6485 372.681 36.2569L363.406 49.7056C356.102 44.7203 349.262 41.706 342.306 41.706C335.349 41.706 331.871 44.7203 331.871 48.7781V49.01C331.871 54.4591 335.349 55.9662 349.378 59.6762C365.841 64.0818 375.116 69.8787 375.116 84.023V84.2549C375.116 100.37 362.827 109.413 345.32 109.413ZM407.81 108.254V43.561H383.116V27.0979H450.359V43.561H425.665V108.254H407.81Z" fill="#53B6ED"/>
<path d="M64.9678 15.2962C55.0739 15.4236 45.3511 17.8943 36.5967 22.5056C27.8422 27.117 20.3054 33.7376 14.6042 41.8247C8.90301 49.9118 5.1998 59.235 3.79822 69.0299C2.39664 78.8248 3.33661 88.8125 6.54106 98.1739C9.7455 107.535 15.1232 116.004 22.2331 122.885C29.343 129.767 37.9828 134.865 47.4438 137.762C56.9049 140.659 66.9179 141.272 76.6619 139.551C86.4058 137.831 95.6031 133.825 103.5 127.863L89.9537 114.342C80.6292 120.599 69.2986 123.135 58.1964 121.45C47.0942 119.765 37.0265 113.981 29.9788 105.238C22.9312 96.496 19.4151 85.4301 20.1242 74.2232C20.8333 63.0162 25.716 52.4818 33.8094 44.6975C41.9027 36.9131 52.6192 32.444 63.8452 32.1715C75.0712 31.899 85.9919 35.8429 94.4534 43.2254C102.915 50.6079 108.303 60.8931 109.555 72.0524C110.807 83.2118 107.832 94.4352 101.217 103.509L114.706 116.998L130.996 133.27L141.437 122.829L122.642 104.04C127.995 92.4333 129.669 79.4667 127.44 66.8807C125.211 54.2948 119.185 42.6919 110.171 33.6294C104.245 27.7061 97.1915 23.0317 89.4271 19.8827C81.6627 16.7337 73.3456 15.1741 64.9678 15.2962ZM65.0373 42.9699C57.1485 42.9692 49.5036 45.7039 43.405 50.7079C37.3064 55.7119 33.1315 62.6757 31.5917 70.4127C30.0518 78.1497 31.2422 86.1813 34.9601 93.1391C38.678 100.097 44.6934 105.55 51.9812 108.57C59.2691 111.59 67.3786 111.99 74.9281 109.701C82.4775 107.412 88.9998 102.576 93.3836 96.0175C97.7674 89.4589 99.7416 81.5833 98.9697 73.7323C98.1979 65.8814 94.7277 58.541 89.1506 52.9617C85.9879 49.7896 82.2295 47.2738 78.0913 45.559C73.9531 43.8443 69.5167 42.9643 65.0373 42.9699ZM65.0373 49.9958C68.5962 49.99 72.1211 50.6877 75.4095 52.0486C78.6979 53.4096 81.685 55.407 84.1989 57.926C84.4553 58.1741 84.6409 58.486 84.7365 58.8297C84.8321 59.1734 84.8343 59.5364 84.7427 59.8812C84.6512 60.226 84.4694 60.5401 84.2159 60.7912C83.9624 61.0422 83.6466 61.2211 83.3009 61.3093C82.9564 61.402 82.5932 61.4004 82.2495 61.3047C81.9057 61.2091 81.594 61.0228 81.3468 60.7655C79.2078 58.6199 76.6664 56.9176 73.8682 55.756C71.07 54.5945 68.0702 53.9966 65.0405 53.9966C62.0108 53.9966 59.0109 54.5945 56.2128 55.756C53.4146 56.9176 50.8732 58.6199 48.7342 60.7655C48.5499 60.962 48.3281 61.1196 48.0818 61.2287C47.8356 61.3379 47.5699 61.3965 47.3005 61.401C47.0312 61.4055 46.7637 61.3558 46.5139 61.255C46.2641 61.1541 46.0371 61.0041 45.8465 60.8138C45.6558 60.6236 45.5052 60.3969 45.4038 60.1474C45.3024 59.8978 45.2522 59.6304 45.2561 59.361C45.26 59.0917 45.318 58.8259 45.4266 58.5794C45.5352 58.3329 45.6922 58.1107 45.8884 57.926C48.4011 55.4093 51.3863 53.4138 54.6724 52.054C57.9586 50.6941 61.481 49.9968 65.0373 50.0021V49.9958Z" fill="#53B6ED"/>
<path d="M180.452 160.238C177.144 160.238 175.035 158.357 173.641 156.281V159.849H172.051V136.171H173.641V147.005C175.035 144.831 177.176 142.918 180.452 142.918C184.442 142.918 188.496 146.129 188.496 151.513V151.578C188.496 156.93 184.442 160.238 180.452 160.238ZM180.29 158.714C183.923 158.714 186.777 156.054 186.777 151.643V151.578C186.777 147.232 183.793 144.442 180.29 144.442C176.819 144.442 173.543 147.329 173.543 151.546V151.61C173.543 155.86 176.819 158.714 180.29 158.714ZM199.614 158.098L205.582 143.307H207.334L200.165 160.433C198.706 163.904 197.019 165.136 194.651 165.136C193.386 165.136 192.511 164.909 191.375 164.423L191.927 163.028C192.802 163.449 193.484 163.644 194.749 163.644C196.5 163.644 197.603 162.639 198.835 159.752L190.889 143.307H192.738L199.614 158.098Z" fill="#0A0A0B"/>
<path d="M235.588 137.285L235.05 140.858C233.462 140.17 231.759 139.786 230.029 139.726C226.914 139.726 225.356 140.928 225.356 143.331C225.356 144.701 226.351 145.93 228.341 147.018C231.793 148.885 233.634 149.908 233.861 150.085C234.818 150.797 235.589 151.729 236.108 152.803C236.628 153.876 236.881 155.059 236.846 156.251C236.846 158.995 235.889 161.065 233.975 162.461C232.264 163.7 229.966 164.32 227.082 164.32C225.209 164.225 223.36 163.848 221.599 163.201L221.985 159.59C223.733 160.385 225.619 160.834 227.537 160.911C228.764 160.932 229.968 160.579 230.99 159.9C231.557 159.532 232.02 159.025 232.335 158.427C232.65 157.829 232.805 157.16 232.786 156.485C232.786 154.862 231.791 153.479 229.801 152.336L224.281 149.383C223.401 148.754 222.675 147.934 222.159 146.983C221.644 146.033 221.351 144.977 221.303 143.897C221.256 142.816 221.455 141.739 221.885 140.747C222.316 139.755 222.966 138.874 223.787 138.171C225.543 136.868 227.694 136.211 229.877 136.311C231.823 136.305 233.755 136.635 235.588 137.285Z" fill="#0A0A0B"/>
<path d="M292.845 136.786V152.652C292.845 156.447 291.945 159.337 290.145 161.323C288.345 163.308 285.784 164.31 282.461 164.326C279.144 164.326 276.582 163.325 274.778 161.323C272.973 159.32 272.073 156.43 272.078 152.652V136.786H275.91V152.147C275.91 157.99 278.094 160.914 282.461 160.918C286.829 160.922 289.013 157.998 289.013 152.147V136.786H292.845Z" fill="#0A0A0B"/>
<path d="M299.619 163.865V136.786H306.17C309.383 136.786 311.771 137.207 313.335 138.05C315.477 139.189 316.548 141.219 316.548 144.14C316.588 145.649 316.031 147.113 314.998 148.213C313.947 149.335 312.552 150.074 311.033 150.313V150.388C311.628 150.642 312.165 151.013 312.612 151.479C313.06 151.946 313.409 152.497 313.639 153.101L318.698 163.89H314.328L310.23 154.499C309.883 153.529 309.213 152.707 308.333 152.172C307.502 151.916 306.633 151.811 305.765 151.862H303.463V163.877L299.619 163.865ZM303.445 140.194V148.415H306.701C308.204 148.503 309.695 148.109 310.957 147.29C311.45 146.94 311.849 146.473 312.116 145.931C312.383 145.389 312.511 144.789 312.488 144.185C312.488 141.524 310.7 140.192 307.125 140.188L303.445 140.194Z" fill="#0A0A0B"/>
<path d="M342.058 137.481L341.748 141.276C340.084 140.275 338.176 139.752 336.234 139.764C334.854 139.709 333.477 139.946 332.196 140.46C330.914 140.975 329.756 141.755 328.797 142.749C326.886 144.804 325.867 147.533 325.964 150.338C325.907 151.742 326.135 153.143 326.635 154.456C327.135 155.769 327.897 156.967 328.873 157.977C329.799 158.936 330.914 159.694 332.147 160.202C333.38 160.71 334.704 160.958 336.038 160.93C338.063 161.026 340.076 160.569 341.862 159.609L342.096 163.403C340.146 164.118 338.075 164.447 336 164.371C331.784 164.371 328.375 163.091 325.774 160.532C323.173 157.973 321.883 154.545 321.904 150.249C321.904 146.113 323.232 142.764 325.888 140.201C328.544 137.637 331.927 136.358 336.038 136.362C338.101 136.305 340.153 136.687 342.058 137.481Z" fill="#0A0A0B"/>
<path d="M347.048 163.865V136.786H362.03V140.194H350.881V148.112H360.999V151.527H350.881V160.45H362.03V163.865H347.048Z" fill="#0A0A0B"/>
<path d="M367.961 163.865V136.786H374.968C381.663 136.786 385.011 139.488 385.011 144.893C385.011 147.688 384.039 149.796 382.096 151.217C380.439 152.431 378.255 153.038 375.544 153.038H371.794V163.865H367.961ZM371.794 140.194V149.623H375.588C376.856 149.662 378.103 149.297 379.149 148.58C379.739 148.161 380.214 147.601 380.529 146.949C380.844 146.298 380.989 145.578 380.951 144.855C380.969 144.123 380.787 143.4 380.425 142.764C380.063 142.128 379.534 141.602 378.896 141.244C377.749 140.53 376.42 140.165 375.07 140.194H371.794Z" fill="#0A0A0B"/>
<path d="M386.541 163.865L397.962 136.786H401.984L413.285 163.865H409.111L406.386 157.035H393.282L390.563 163.865H386.541ZM405.165 153.854L399.834 140.428L394.509 153.854H405.165Z" fill="#0A0A0B"/>
<path d="M429.949 137.285L429.411 140.859C427.835 140.174 426.145 139.79 424.428 139.727C421.308 139.727 419.75 140.928 419.755 143.331C419.755 144.701 420.75 145.93 422.74 147.018C426.192 148.915 428.026 149.902 428.26 150.085C429.217 150.797 429.988 151.73 430.507 152.803C431.027 153.876 431.28 155.059 431.245 156.251C431.245 158.996 430.288 161.066 428.374 162.461C426.658 163.701 424.359 164.32 421.475 164.32C419.603 164.225 417.757 163.848 415.998 163.201L416.384 159.59C418.132 160.385 420.018 160.834 421.936 160.912C423.161 160.933 424.364 160.58 425.383 159.9C425.952 159.534 426.417 159.028 426.733 158.429C427.049 157.831 427.204 157.161 427.185 156.485C427.185 154.86 426.192 153.475 424.194 152.337L418.68 149.383C417.741 148.764 416.975 147.918 416.452 146.922C415.928 145.927 415.666 144.816 415.688 143.692C415.645 142.642 415.847 141.596 416.28 140.639C416.713 139.681 417.363 138.838 418.18 138.177C419.937 136.873 422.091 136.216 424.276 136.318C426.209 136.314 428.127 136.641 429.949 137.285Z" fill="#0A0A0B"/>
<path d="M449.149 137.285L448.611 140.858C447.023 140.17 445.32 139.786 443.59 139.726C440.474 139.726 438.917 140.928 438.917 143.331C438.917 144.701 439.914 145.93 441.908 147.018C445.356 148.885 447.195 149.908 447.422 150.085C448.38 150.797 449.151 151.729 449.672 152.802C450.193 153.875 450.447 155.058 450.414 156.251C450.414 158.995 449.454 161.065 447.536 162.461C445.824 163.7 443.527 164.32 440.643 164.32C438.77 164.225 436.921 163.847 435.16 163.201L435.546 159.59C437.294 160.385 439.18 160.834 441.098 160.911C442.325 160.932 443.529 160.579 444.551 159.9C445.118 159.532 445.581 159.025 445.896 158.427C446.21 157.829 446.366 157.16 446.347 156.485C446.347 154.862 445.352 153.479 443.362 152.336L437.842 149.383C436.962 148.754 436.236 147.934 435.72 146.983C435.205 146.033 434.912 144.977 434.864 143.897C434.817 142.816 435.016 141.739 435.446 140.747C435.876 139.755 436.527 138.874 437.348 138.171C439.103 136.868 441.255 136.211 443.438 136.311C445.384 136.305 447.315 136.635 449.149 137.285Z" fill="#0A0A0B"/>
<path fill-rule="evenodd" clip-rule="evenodd" d="M252.416 136.242C256.137 136.242 259.704 137.719 262.335 140.35C264.965 142.98 266.443 146.548 266.443 150.268C266.443 153.988 264.965 157.556 262.335 160.187C259.704 162.817 256.137 164.295 252.416 164.295C249.65 164.291 246.952 163.442 244.682 161.86C243.152 160.14 243.961 158.831 246.074 157.737H246.124C247.871 159.275 250.121 160.12 252.448 160.115C255.056 160.115 257.557 159.079 259.402 157.234C261.246 155.39 262.282 152.889 262.282 150.281C262.282 147.673 261.246 145.172 259.402 143.327C257.557 141.483 255.056 140.447 252.448 140.447C250.191 140.445 248.007 141.248 246.289 142.711L246.055 142.591C244.069 141.497 243.304 139.967 245.315 138.278C247.459 136.955 249.929 136.255 252.448 136.254L252.416 136.242Z" fill="#0A0A0B"/>
<path fill-rule="evenodd" clip-rule="evenodd" d="M242.728 145.601C239.566 143.103 242.987 139.562 245.289 138.266C243.278 139.954 244.024 141.485 246.029 142.579L258.044 148.447C260.264 149.446 259.84 151.008 257.968 151.957L246.092 157.75C243.967 158.844 243.17 160.153 244.707 161.873C241.14 159.021 240.167 156.947 242.879 154.803C243.302 154.469 243.763 154.187 244.252 153.962L251.841 150.167L242.728 145.601Z" fill="#53B6ED"/>
<path d="M451.355 112.333V104.899H448.557V104.033H455.09V104.899H452.292V112.333H451.355ZM456.793 112.333V104.033H457.742L460.765 108.563L463.789 104.033H464.738V112.333H463.801V105.61L460.777 110.057H460.73L457.706 105.622V112.333H456.793Z" fill="#0A0A0B"/>
</g>
<defs>
<clipPath id="clip0_1579_17264">
<rect width="470" height="191" fill="white"/>
</clipPath>
</defs>
</svg>
